<svg width="93" height="41" viewBox="0 0 93 41" fill="none" xmlns="http://www.w3.org/2000/svg">
<path d="M7.524 8.396C8.816 8.396 9.956 8.65567 10.944 9.175C11.932 9.68167 12.6983 10.429 13.243 11.417C13.8003 12.3923 14.079 13.5577 14.079 14.913V22H9.595V19.321H5.377V22H0.969V14.913C0.969 13.5577 1.24133 12.3923 1.786 11.417C2.34333 10.429 3.116 9.68167 4.104 9.175C5.092 8.65567 6.232 8.396 7.524 8.396ZM9.595 15.939V14.533C9.595 13.7097 9.39867 13.089 9.006 12.671C8.626 12.2403 8.11933 12.025 7.486 12.025C6.85267 12.025 6.33967 12.2403 5.947 12.671C5.567 13.089 5.377 13.7097 5.377 14.533V15.939H9.595ZM21.8499 11.417C23.6232 11.417 25.0165 11.8983 26.0299 12.861C27.0432 13.811 27.5499 15.1283 27.5499 16.813C27.5499 17.8897 27.3409 18.8333 26.9229 19.644C26.5049 20.4547 25.9095 21.0817 25.1369 21.525C24.3769 21.9683 23.4965 22.19 22.4959 22.19C21.9512 22.19 21.4762 22.1203 21.0709 21.981C20.6655 21.829 20.3109 21.5947 20.0069 21.278V25.686H15.7129V16.851C15.7129 15.7617 15.9662 14.8053 16.4729 13.982C16.9795 13.1587 17.6952 12.5253 18.6199 12.082C19.5445 11.6387 20.6212 11.417 21.8499 11.417ZM21.6219 18.846C22.1412 18.846 22.5529 18.6687 22.8569 18.314C23.1609 17.9467 23.3129 17.4463 23.3129 16.813C23.3129 16.1923 23.1609 15.6983 22.8569 15.331C22.5529 14.951 22.1412 14.761 21.6219 14.761C21.1025 14.761 20.6909 14.951 20.3869 15.331C20.0829 15.6983 19.9309 16.1923 19.9309 16.813C19.9309 17.4463 20.0829 17.9467 20.3869 18.314C20.6909 18.6687 21.1025 18.846 21.6219 18.846ZM42.6878 11.417C43.9418 11.417 44.9425 11.8033 45.6898 12.576C46.4498 13.3487 46.8298 14.514 46.8298 16.072V22H42.5358V16.813C42.5358 15.6223 42.1495 15.027 41.3768 15.027C40.9715 15.027 40.6421 15.179 40.3888 15.483C40.1481 15.787 40.0278 16.2683 40.0278 16.927V22H35.7338V16.813C35.7338 15.6223 35.3475 15.027 34.5748 15.027C34.1695 15.027 33.8401 15.179 33.5868 15.483C33.3461 15.787 33.2258 16.2683 33.2258 16.927V22H28.9318V11.607H33.0168V12.576C33.7895 11.8033 34.7711 11.417 35.9618 11.417C36.6585 11.417 37.2855 11.55 37.8428 11.816C38.4001 12.0693 38.8561 12.462 39.2108 12.994C39.6288 12.4873 40.1355 12.101 40.7308 11.835C41.3261 11.5563 41.9785 11.417 42.6878 11.417Z" fill="#EE4D4D"/>
<path d="M62.6556 8.415C64.505 8.415 66.101 8.71267 67.4436 9.308C68.799 9.90333 69.8313 10.7267 70.5406 11.778C71.25 12.8293 71.6046 14.02 71.6046 15.35C71.6046 16.68 71.25 17.8707 70.5406 18.922C69.8313 19.9733 68.799 20.7967 67.4436 21.392C66.101 21.9873 64.505 22.285 62.6556 22.285C60.8063 22.285 59.204 21.9873 57.8486 21.392C56.506 20.7967 55.48 19.9733 54.7706 18.922C54.074 17.8707 53.7256 16.68 53.7256 15.35C53.7256 14.02 54.074 12.8293 54.7706 11.778C55.48 10.7267 56.506 9.90333 57.8486 9.308C59.204 8.71267 60.8063 8.415 62.6556 8.415ZM58.0006 15.35C58.0006 16.1733 58.2096 16.87 58.6276 17.44C59.0583 17.9973 59.717 18.3963 60.6036 18.637V12.082C59.717 12.31 59.0583 12.709 58.6276 13.279C58.2096 13.8363 58.0006 14.5267 58.0006 15.35ZM64.7266 18.637C66.462 18.1683 67.3296 17.0727 67.3296 15.35C67.3296 13.64 66.462 12.5507 64.7266 12.082V18.637ZM84.3793 11.607V22H80.2943V21.145C79.6736 21.8417 78.7236 22.19 77.4443 22.19C76.5323 22.19 75.69 21.9747 74.9173 21.544C74.1573 21.1007 73.5493 20.4673 73.0933 19.644C72.65 18.8207 72.4283 17.8707 72.4283 16.794C72.4283 15.7173 72.65 14.7737 73.0933 13.963C73.5493 13.1397 74.1573 12.5127 74.9173 12.082C75.69 11.6387 76.5323 11.417 77.4443 11.417C78.597 11.417 79.4773 11.7147 80.0853 12.31V11.607H84.3793ZM78.4703 18.846C78.9643 18.846 79.3696 18.6687 79.6863 18.314C80.003 17.9467 80.1613 17.44 80.1613 16.794C80.1613 16.148 80.003 15.6477 79.6863 15.293C79.3696 14.9383 78.9643 14.761 78.4703 14.761C77.9763 14.761 77.571 14.9383 77.2543 15.293C76.9376 15.6477 76.7793 16.148 76.7793 16.794C76.7793 17.44 76.9376 17.9467 77.2543 18.314C77.571 18.6687 77.9763 18.846 78.4703 18.846Z" fill="black"/>
<path opacity="0.6" d="M11.832 29.6V38H1.308V29.6H2.496V36.956H5.988V29.6H7.164V36.956H10.656V29.6H11.832ZM16.7247 35.312H15.4047V38H14.2527V31.64H15.4047V34.328H16.7487L18.8127 31.64H20.0487L17.6367 34.7L20.2167 38H18.8607L16.7247 35.312ZM23.9377 38.072C23.3057 38.072 22.7377 37.932 22.2337 37.652C21.7297 37.372 21.3337 36.988 21.0457 36.5C20.7657 36.004 20.6257 35.444 20.6257 34.82C20.6257 34.196 20.7657 33.64 21.0457 33.152C21.3337 32.656 21.7297 32.272 22.2337 32C22.7377 31.72 23.3057 31.58 23.9377 31.58C24.5697 31.58 25.1337 31.72 25.6297 32C26.1337 32.272 26.5257 32.656 26.8057 33.152C27.0937 33.64 27.2377 34.196 27.2377 34.82C27.2377 35.444 27.0937 36.004 26.8057 36.5C26.5257 36.988 26.1337 37.372 25.6297 37.652C25.1337 37.932 24.5697 38.072 23.9377 38.072ZM23.9377 37.064C24.3457 37.064 24.7097 36.972 25.0297 36.788C25.3577 36.596 25.6137 36.332 25.7977 35.996C25.9817 35.652 26.0737 35.26 26.0737 34.82C26.0737 34.38 25.9817 33.992 25.7977 33.656C25.6137 33.312 25.3577 33.048 25.0297 32.864C24.7097 32.68 24.3457 32.588 23.9377 32.588C23.5297 32.588 23.1617 32.68 22.8337 32.864C22.5137 33.048 22.2577 33.312 22.0657 33.656C21.8817 33.992 21.7897 34.38 21.7897 34.82C21.7897 35.26 21.8817 35.652 22.0657 35.996C22.2577 36.332 22.5137 36.596 22.8337 36.788C23.1617 36.972 23.5297 37.064 23.9377 37.064ZM34.3143 31.64V38H33.1623V32.648H30.4263L30.3543 34.064C30.3143 34.92 30.2383 35.636 30.1263 36.212C30.0143 36.78 29.8303 37.236 29.5743 37.58C29.3183 37.924 28.9623 38.096 28.5063 38.096C28.2983 38.096 28.0623 38.06 27.7983 37.988L27.8703 37.016C27.9743 37.04 28.0703 37.052 28.1583 37.052C28.4783 37.052 28.7183 36.912 28.8783 36.632C29.0383 36.352 29.1423 36.02 29.1903 35.636C29.2383 35.252 29.2823 34.704 29.3223 33.992L29.4303 31.64H34.3143ZM42.5178 31.64V38H41.4138V36.992C41.1578 37.344 40.8338 37.612 40.4418 37.796C40.0498 37.98 39.6178 38.072 39.1458 38.072C38.5298 38.072 37.9778 37.936 37.4898 37.664C37.0018 37.392 36.6178 37.012 36.3378 36.524C36.0658 36.028 35.9298 35.46 35.9298 34.82C35.9298 34.18 36.0658 33.616 36.3378 33.128C36.6178 32.64 37.0018 32.26 37.4898 31.988C37.9778 31.716 38.5298 31.58 39.1458 31.58C39.6018 31.58 40.0218 31.668 40.4058 31.844C40.7898 32.012 41.1098 32.264 41.3658 32.6V31.64H42.5178ZM39.2418 37.064C39.6418 37.064 40.0058 36.972 40.3338 36.788C40.6618 36.596 40.9178 36.332 41.1018 35.996C41.2858 35.652 41.3778 35.26 41.3778 34.82C41.3778 34.38 41.2858 33.992 41.1018 33.656C40.9178 33.312 40.6618 33.048 40.3338 32.864C40.0058 32.68 39.6418 32.588 39.2418 32.588C38.8338 32.588 38.4658 32.68 38.1378 32.864C37.8178 33.048 37.5618 33.312 37.3698 33.656C37.1858 33.992 37.0938 34.38 37.0938 34.82C37.0938 35.26 37.1858 35.652 37.3698 35.996C37.5618 36.332 37.8178 36.596 38.1378 36.788C38.4658 36.972 38.8338 37.064 39.2418 37.064ZM52.2761 34.7C53.1001 34.908 53.5121 35.424 53.5121 36.248C53.5121 36.808 53.3001 37.24 52.8761 37.544C52.4601 37.848 51.8361 38 51.0041 38H47.9441V31.64H50.8961C51.6481 31.64 52.2361 31.784 52.6601 32.072C53.0841 32.352 53.2961 32.752 53.2961 33.272C53.2961 33.608 53.2041 33.9 53.0201 34.148C52.8441 34.388 52.5961 34.572 52.2761 34.7ZM49.0721 34.376H50.8001C51.2401 34.376 51.5721 34.296 51.7961 34.136C52.0281 33.976 52.1441 33.744 52.1441 33.44C52.1441 32.832 51.6961 32.528 50.8001 32.528H49.0721V34.376ZM50.9201 37.112C51.4001 37.112 51.7601 37.036 52.0001 36.884C52.2401 36.732 52.3601 36.496 52.3601 36.176C52.3601 35.848 52.2481 35.604 52.0241 35.444C51.8081 35.284 51.4641 35.204 50.9921 35.204H49.0721V37.112H50.9201ZM58.0392 38.072C57.4072 38.072 56.8392 37.932 56.3352 37.652C55.8312 37.372 55.4352 36.988 55.1472 36.5C54.8672 36.004 54.7272 35.444 54.7272 34.82C54.7272 34.196 54.8672 33.64 55.1472 33.152C55.4352 32.656 55.8312 32.272 56.3352 32C56.8392 31.72 57.4072 31.58 58.0392 31.58C58.6712 31.58 59.2352 31.72 59.7312 32C60.2352 32.272 60.6272 32.656 60.9072 33.152C61.1952 33.64 61.3392 34.196 61.3392 34.82C61.3392 35.444 61.1952 36.004 60.9072 36.5C60.6272 36.988 60.2352 37.372 59.7312 37.652C59.2352 37.932 58.6712 38.072 58.0392 38.072ZM58.0392 37.064C58.4472 37.064 58.8112 36.972 59.1312 36.788C59.4592 36.596 59.7152 36.332 59.8992 35.996C60.0832 35.652 60.1752 35.26 60.1752 34.82C60.1752 34.38 60.0832 33.992 59.8992 33.656C59.7152 33.312 59.4592 33.048 59.1312 32.864C58.8112 32.68 58.4472 32.588 58.0392 32.588C57.6312 32.588 57.2632 32.68 56.9352 32.864C56.6152 33.048 56.3592 33.312 56.1672 33.656C55.9832 33.992 55.8912 34.38 55.8912 34.82C55.8912 35.26 55.9832 35.652 56.1672 35.996C56.3592 36.332 56.6152 36.596 56.9352 36.788C57.2632 36.972 57.6312 37.064 58.0392 37.064ZM65.4747 35.312H64.1547V38H63.0027V31.64H64.1547V34.328H65.4987L67.5627 31.64H68.7987L66.3867 34.7L68.9667 38H67.6107L65.4747 35.312ZM75.9397 31.64V38H74.8357V36.992C74.5797 37.344 74.2557 37.612 73.8637 37.796C73.4717 37.98 73.0397 38.072 72.5677 38.072C71.9517 38.072 71.3997 37.936 70.9117 37.664C70.4237 37.392 70.0397 37.012 69.7597 36.524C69.4877 36.028 69.3517 35.46 69.3517 34.82C69.3517 34.18 69.4877 33.616 69.7597 33.128C70.0397 32.64 70.4237 32.26 70.9117 31.988C71.3997 31.716 71.9517 31.58 72.5677 31.58C73.0237 31.58 73.4437 31.668 73.8277 31.844C74.2117 32.012 74.5317 32.264 74.7877 32.6V31.64H75.9397ZM72.6637 37.064C73.0637 37.064 73.4277 36.972 73.7557 36.788C74.0837 36.596 74.3397 36.332 74.5237 35.996C74.7077 35.652 74.7997 35.26 74.7997 34.82C74.7997 34.38 74.7077 33.992 74.5237 33.656C74.3397 33.312 74.0837 33.048 73.7557 32.864C73.4277 32.68 73.0637 32.588 72.6637 32.588C72.2557 32.588 71.8877 32.68 71.5597 32.864C71.2397 33.048 70.9837 33.312 70.7917 33.656C70.6077 33.992 70.5157 34.38 70.5157 34.82C70.5157 35.26 70.6077 35.652 70.7917 35.996C70.9837 36.332 71.2397 36.596 71.5597 36.788C71.8877 36.972 72.2557 37.064 72.6637 37.064ZM83.6033 31.64V38H82.4513V32.648H79.7153L79.6433 34.064C79.6033 34.92 79.5273 35.636 79.4153 36.212C79.3033 36.78 79.1193 37.236 78.8633 37.58C78.6073 37.924 78.2513 38.096 77.7953 38.096C77.5873 38.096 77.3513 38.06 77.0873 37.988L77.1593 37.016C77.2633 37.04 77.3593 37.052 77.4473 37.052C77.7673 37.052 78.0073 36.912 78.1673 36.632C78.3273 36.352 78.4313 36.02 78.4793 35.636C78.5273 35.252 78.5713 34.704 78.6113 33.992L78.7193 31.64H83.6033ZM91.8068 31.64V38H90.7028V36.992C90.4468 37.344 90.1228 37.612 89.7308 37.796C89.3388 37.98 88.9068 38.072 88.4348 38.072C87.8188 38.072 87.2668 37.936 86.7788 37.664C86.2908 37.392 85.9068 37.012 85.6268 36.524C85.3548 36.028 85.2188 35.46 85.2188 34.82C85.2188 34.18 85.3548 33.616 85.6268 33.128C85.9068 32.64 86.2908 32.26 86.7788 31.988C87.2668 31.716 87.8188 31.58 88.4348 31.58C88.8908 31.58 89.3108 31.668 89.6948 31.844C90.0788 32.012 90.3988 32.264 90.6548 32.6V31.64H91.8068ZM88.5308 37.064C88.9308 37.064 89.2948 36.972 89.6228 36.788C89.9508 36.596 90.2068 36.332 90.3908 35.996C90.5748 35.652 90.6668 35.26 90.6668 34.82C90.6668 34.38 90.5748 33.992 90.3908 33.656C90.2068 33.312 89.9508 33.048 89.6228 32.864C89.2948 32.68 88.9308 32.588 88.5308 32.588C88.1228 32.588 87.7548 32.68 87.4268 32.864C87.1068 33.048 86.8508 33.312 86.6588 33.656C86.4748 33.992 86.3828 34.38 86.3828 34.82C86.3828 35.26 86.4748 35.652 86.6588 35.996C86.8508 36.332 87.1068 36.596 87.4268 36.788C87.7548 36.972 88.1228 37.064 88.5308 37.064Z" fill="black"/>
</svg>
