<svg width="36" height="36" viewBox="0 0 36 36" fill="none" xmlns="http://www.w3.org/2000/svg">
<path d="M18 0C8.0588 0 0 8.0588 0 18C0 27.9412 8.0588 36 18 36C27.9412 36 36 27.9412 36 18C36 8.0588 27.9412 0 18 0Z" fill="#40B3E0"/>
<path d="M26.7593 10.3545L23.5442 26.5642C23.5442 26.5642 23.0946 27.6884 21.8581 27.1488L14.439 21.4608L11.7412 20.1569L7.19988 18.6281C7.19988 18.6281 6.50294 18.3808 6.43544 17.8413C6.36794 17.3017 7.22238 17.0095 7.22238 17.0095L25.2752 9.92759C25.2752 9.92759 26.7591 9.27566 26.7591 10.3548" fill="white"/>
<path d="M13.8679 26.3821C13.8679 26.3821 13.6513 26.3618 13.3813 25.5074C13.1117 24.6531 11.7402 20.1568 11.7402 20.1568L22.644 13.2324C22.644 13.2324 23.2736 12.8502 23.2511 13.2324C23.2511 13.2324 23.3635 13.2999 23.0261 13.6146C22.689 13.9295 14.4606 21.3259 14.4606 21.3259" fill="#D2E5F1"/>
<path d="M17.282 23.6413L14.3476 26.3168C14.3476 26.3168 14.1181 26.4909 13.8672 26.3818L14.4291 21.4121" fill="#B5CFE4"/>
</svg>
