<svg width="36" height="36" viewBox="0 0 36 36" fill="none" xmlns="http://www.w3.org/2000/svg">
<path d="M23.5253 0H12.4747C2.39055 0 0 2.39055 0 12.4747V23.5253C0 33.6095 2.39055 36 12.4747 36H23.5253C33.6094 36 36 33.6095 36 23.5253V12.4747C36 2.39055 33.5858 0 23.5253 0ZM29.0623 25.6807H26.449C25.4591 25.6807 25.1542 24.8955 23.3734 23.091C21.8266 21.5914 21.1415 21.3923 20.7601 21.3923C20.2212 21.3923 20.0682 21.5442 20.0682 22.2833V24.6446C20.0682 25.278 19.8691 25.6582 18.1929 25.6582C15.421 25.6582 12.3454 23.982 10.1888 20.8591C6.93653 16.2827 6.04669 12.855 6.04669 12.1462C6.04669 11.7649 6.19856 11.4083 6.93091 11.4083H9.54983C10.2124 11.4083 10.4644 11.7131 10.722 12.4219C12.0169 16.1601 14.1734 19.4349 15.0633 19.4349C15.3918 19.4349 15.5436 19.283 15.5436 18.4449V14.584C15.4435 12.8032 14.5064 12.6502 14.5064 12.018C14.5064 11.7131 14.7584 11.4083 15.1623 11.4083H19.2808C19.8376 11.4083 20.0424 11.7131 20.0424 12.369V17.5776C20.0424 18.1401 20.2944 18.3392 20.4462 18.3392C20.7747 18.3392 21.056 18.1401 21.6646 17.5303C23.5455 15.421 24.8932 12.1687 24.8932 12.1687C25.0687 11.7874 25.3736 11.4308 26.0362 11.4308H28.6551C29.4403 11.4308 29.6158 11.8346 29.4403 12.3971C29.1118 13.9203 25.9068 18.4438 25.9068 18.4438C25.6312 18.9005 25.5255 19.0997 25.9068 19.6093C26.1881 19.9906 27.1027 20.7815 27.7113 21.4902C28.8306 22.7614 29.6912 23.8279 29.9207 24.5659C30.1783 25.2982 29.7981 25.6796 29.059 25.6796L29.0623 25.6807Z" fill="#2787F5"/>
</svg>
