<svg width="39" height="40" viewBox="0 0 39 40" fill="none" xmlns="http://www.w3.org/2000/svg">
<path d="M1.79492 38.0601L4.28879 28.7683C2.751 26.0429 1.94205 22.9521 1.94315 19.8063C1.94315 9.91756 9.82603 1.87305 19.4962 1.87305C24.1963 1.87305 28.6 3.74386 31.9134 7.12908C35.2269 10.5144 37.0495 15.0223 37.0495 19.8151C37.0495 29.7037 29.1667 37.7482 19.4963 37.7482H19.4877C16.549 37.7482 13.6627 36.991 11.099 35.5657L1.79492 38.0603V38.0601Z" fill="url(#paint0_linear)"/>
<path d="M1.1582 38.7112L3.73921 29.0899C2.15225 26.2748 1.30628 23.0765 1.31512 19.8071C1.31512 9.56207 9.47694 1.23242 19.505 1.23242C24.3705 1.23242 28.9396 3.1655 32.3667 6.67553C35.8022 10.1856 37.6945 14.8537 37.6858 19.8159C37.6858 30.0609 29.524 38.3906 19.496 38.3906H19.4874C16.4501 38.3893 13.4613 37.6114 10.7936 36.1277L1.1582 38.7113V38.7112ZM11.247 32.7602L11.7964 33.0987C14.116 34.5064 16.7754 35.2458 19.4874 35.2547H19.4961C27.8235 35.2547 34.6077 28.3327 34.6077 19.8159C34.6077 15.6913 33.0381 11.8159 30.1867 8.8939C27.3353 5.97188 23.5334 4.3683 19.4961 4.3683C11.1599 4.3683 4.37586 11.2903 4.37586 19.8071C4.37586 22.7202 5.16926 25.5621 6.68661 28.0207L7.04416 28.6088L5.51813 34.3014L11.247 32.7602Z" fill="white"/>
<path d="M14.9531 12.0295C14.613 11.2544 14.2554 11.2365 13.9329 11.2276C13.6713 11.2187 13.3662 11.2188 13.0609 11.2188C12.7557 11.2188 12.2673 11.3345 11.8488 11.7977C11.4302 12.2611 10.2617 13.3836 10.2617 15.6732C10.2617 17.9537 11.8924 20.163 12.1191 20.4748C12.3458 20.7867 15.267 25.624 19.8798 27.486C23.7166 29.0362 24.5014 28.7243 25.3297 28.6441C26.1669 28.564 28.0156 27.5216 28.3992 26.4348C28.7741 25.3479 28.7741 24.4214 28.6607 24.2254C28.5474 24.0293 28.2422 23.9137 27.7887 23.6819C27.3353 23.4503 25.103 22.3279 24.6846 22.1675C24.2659 22.0072 23.9608 21.9359 23.6643 22.3991C23.359 22.8623 22.4872 23.9047 22.2254 24.2166C21.9639 24.5283 21.6936 24.564 21.2401 24.3324C20.7867 24.1008 19.3218 23.6107 17.5866 22.025C16.235 20.7956 15.3194 19.2721 15.0577 18.8089C14.7961 18.3458 15.0316 18.0961 15.2583 17.8647C15.4588 17.6597 15.7117 17.3212 15.9385 17.0539C16.1652 16.7867 16.2436 16.5907 16.3919 16.2788C16.5401 15.9671 16.4703 15.6998 16.357 15.4682C16.2436 15.2365 15.3543 12.947 14.9531 12.0295Z" fill="white"/>
<defs>
<linearGradient id="paint0_linear" x1="19.4215" y1="38.0577" x2="19.4215" y2="1.87087" gradientUnits="userSpaceOnUse">
<stop stop-color="#20B038"/>
<stop offset="1" stop-color="#60D66A"/>
</linearGradient>
</defs>
</svg>
